<svg width="24" height="24" viewBox="0 0 24 24" fill="none" xmlns="http://www.w3.org/2000/svg">
<path d="M13.9899 12.0123L23.2777 2.74926L23.2832 2.7438L23.2883 2.73794C23.5074 2.48267 23.622 2.15422 23.609 1.81821C23.596 1.4822 23.4564 1.16356 23.2181 0.925942C22.9799 0.688338 22.6606 0.549232 22.3241 0.536271C21.9877 0.52331 21.6586 0.637439 21.4028 0.855985L21.3969 0.861001L21.3914 0.866455L12.1028 10.1302L2.81421 0.855195L2.81412 0.85511C2.56238 0.60404 2.22105 0.463086 1.86526 0.463086C1.50948 0.463086 1.16815 0.60404 0.916408 0.85511C0.664646 1.1062 0.523111 1.44686 0.523111 1.80219C0.523111 2.15751 0.664646 2.49817 0.916408 2.74926L0.916493 2.74935L10.2155 12.0123L0.92171 21.2701C0.78445 21.3887 0.672803 21.5341 0.593633 21.6973C0.513304 21.8629 0.468152 22.0432 0.461032 22.2271C0.453911 22.411 0.484975 22.5943 0.552262 22.7656C0.619549 22.9369 0.721597 23.0924 0.851969 23.2224C0.98234 23.3524 1.13822 23.4542 1.30981 23.5212C1.4814 23.5882 1.66501 23.6192 1.84914 23.6121C2.03326 23.605 2.21394 23.56 2.37984 23.48C2.54332 23.4011 2.68899 23.2898 2.80796 23.153L12.1027 13.8943L21.3914 23.1582L21.3969 23.1636L21.4028 23.1686C21.6586 23.3872 21.9877 23.5013 22.3241 23.4883C22.6606 23.4754 22.9799 23.3363 23.2181 23.0987C23.4564 22.861 23.596 22.5424 23.609 22.2064C23.622 21.8704 23.5074 21.5419 23.2883 21.2867L23.2832 21.2808L23.2777 21.2753L13.9899 12.0123Z" fill="#FFD600" stroke="#FFD600" stroke-width="0.4"/>
</svg>
