<svg width="18" height="13" viewBox="0 0 18 13" fill="none" xmlns="http://www.w3.org/2000/svg">
<path fill-rule="evenodd" clip-rule="evenodd" d="M2.65703 4.11565e-05V4.88591C3.40112 3.99794 4.29114 3.55192 5.32505 3.55192C5.85947 3.55192 6.33635 3.65263 6.76389 3.85612C7.19348 4.05551 7.51414 4.3145 7.72997 4.62488C7.94785 4.94143 8.09585 5.28673 8.17396 5.667C8.25207 6.04521 8.29318 6.63513 8.29318 7.43471V12.6577H5.9828V7.9527C5.9828 7.01951 5.94171 6.42754 5.85126 6.17677C5.76493 5.92395 5.61077 5.72661 5.38878 5.57862C5.16473 5.42857 4.88723 5.35458 4.55424 5.35458C4.17192 5.35458 3.82867 5.45118 3.52857 5.64028C3.22435 5.83144 3.00441 6.11715 2.8667 6.49947C2.72487 6.88384 2.65498 7.44912 2.65703 8.19731L2.65499 12.6577H0.34668V4.11565e-05H2.65703" fill="black"/>
<path fill-rule="evenodd" clip-rule="evenodd" d="M11.757 0.000659166V4.88624C12.5002 3.99738 13.3912 3.55189 14.4257 3.55189C14.9557 3.55189 15.437 3.65324 15.8635 3.85592C16.2921 4.0565 16.613 4.31408 16.8284 4.62655C17.0459 4.94114 17.1937 5.28739 17.2739 5.66742C17.352 6.04746 17.3921 6.63441 17.3921 7.43459V12.658H15.0823V7.95397C15.0823 7.02077 15.0401 6.42748 14.9515 6.17624C14.8628 5.92499 14.7087 5.72653 14.487 5.57874C14.2674 5.42884 13.9866 5.35495 13.653 5.35495C13.2709 5.35495 12.9267 5.44995 12.6269 5.64208C12.3271 5.8321 12.1054 6.11925 11.964 6.49929C11.8267 6.88354 11.757 7.44936 11.757 8.19677V12.658H9.44727V0.000659166H11.757" fill="black"/>
</svg>
