<svg width="15" height="14" viewBox="0 0 15 14" fill="none" xmlns="http://www.w3.org/2000/svg">
<path d="M14.1982 8.67074V13.6349H11.2924V8.97343C11.2924 7.8232 10.8686 7.03621 9.8395 7.03621C9.0525 7.03621 8.5682 7.58105 8.38658 8.06536C8.32605 8.24697 8.26551 8.48912 8.26551 8.79181V13.6349H5.35968C5.35968 13.6349 5.42021 5.76491 5.35968 4.97791H8.26551V6.18868C8.62874 5.58329 9.35519 4.73576 10.8686 4.73576C12.7453 4.73576 14.1982 6.00706 14.1982 8.67074ZM2.33277 0.800781C1.36416 0.800781 0.698242 1.4667 0.698242 2.31423C0.698242 3.16177 1.30362 3.82769 2.27223 3.82769C3.30138 3.82769 3.90676 3.16177 3.90676 2.31423C3.9673 1.40616 3.36192 0.800781 2.33277 0.800781ZM0.879856 13.6349H3.78569V4.97791H0.879856V13.6349Z" fill="black"/>
</svg>
