<svg width="74" height="74" viewBox="0 0 74 74" fill="none" xmlns="http://www.w3.org/2000/svg">
<path d="M19.4177 50.6479L34.2206 43.5604L36.7649 51.0909L19.4177 59.2857V50.6479Z" fill="#0D348D"/>
<path d="M19.4177 50.6479L34.2206 43.5604L36.7649 51.0909L19.4177 59.2857V50.6479Z" fill="url(#paint0_linear_1_227)" fill-opacity="0.75"/>
<path d="M19.4177 50.6479L34.2206 43.5604L36.7649 51.0909L19.4177 59.2857V50.6479Z" fill="url(#paint1_linear_1_227)" fill-opacity="0.75"/>
<path d="M19.4205 65.272L37.6928 56.6342V65.4935L19.4205 73.9098V65.272Z" fill="#0D348D"/>
<path d="M19.4205 65.272L37.6928 56.6342V65.4935L19.4205 73.9098V65.272Z" fill="url(#paint2_linear_1_227)" fill-opacity="0.75"/>
<path d="M19.4205 65.272L37.6928 56.6342V65.4935L19.4205 73.9098V65.272Z" fill="url(#paint3_linear_1_227)" fill-opacity="0.75"/>
<path d="M37.4549 29.3874L0.910156 12.3333V21.1926L37.4549 38.0253V29.3874Z" fill="#011A53"/>
<path d="M37.4549 29.3874L0.910156 12.3333V21.1926L37.4549 38.0253V29.3874Z" fill="#0094FF"/>
<path d="M37.4549 29.3874L0.910156 12.3333V21.1926L37.4549 38.0253V29.3874Z" fill="url(#paint4_linear_1_227)" fill-opacity="0.75"/>
<path d="M19.4205 50.6515L1.14813 42.0137V50.873L19.4205 59.2894V50.6515Z" fill="#011A53"/>
<path d="M19.4205 50.6515L1.14813 42.0137V50.873L19.4205 59.2894V50.6515Z" fill="#0094FF"/>
<path d="M19.4205 50.6515L1.14813 42.0137V50.873L19.4205 59.2894V50.6515Z" fill="url(#paint5_linear_1_227)" fill-opacity="0.75"/>
<path d="M19.4204 65.272L1.14807 56.6342V65.4935L19.4204 73.9098V65.272Z" fill="#011A53"/>
<path d="M19.4204 65.272L1.14807 56.6342V65.4935L19.4204 73.9098V65.272Z" fill="#0094FF"/>
<path d="M19.4204 65.272L1.14807 56.6342V65.4935L19.4204 73.9098V65.272Z" fill="url(#paint6_linear_1_227)" fill-opacity="0.75"/>
<path d="M37.4549 44.0077L0.910156 26.9535V35.8128L37.4549 52.6455V44.0077Z" fill="#011A53"/>
<path d="M37.4549 44.0077L0.910156 26.9535V35.8128L37.4549 52.6455V44.0077Z" fill="#0094FF"/>
<path d="M37.4549 44.0077L0.910156 26.9535V35.8128L37.4549 52.6455V44.0077Z" fill="url(#paint7_linear_1_227)" fill-opacity="0.75"/>
<path d="M37.4549 29.3875L73.9996 12.3333V21.1926L37.4549 38.0253V29.3875Z" fill="#0D348D"/>
<path d="M37.4549 29.3875L73.9996 12.3333V21.1926L37.4549 38.0253V29.3875Z" fill="url(#paint8_linear_1_227)" fill-opacity="0.75"/>
<path d="M37.4549 29.3875L73.9996 12.3333V21.1926L37.4549 38.0253V29.3875Z" fill="url(#paint9_linear_1_227)" fill-opacity="0.75"/>
<path d="M55.7272 50.6515L73.9996 42.0137V50.873L55.7272 59.2894V50.6515Z" fill="#0D348D"/>
<path d="M55.7272 50.6515L73.9996 42.0137V50.873L55.7272 59.2894V50.6515Z" fill="url(#paint10_linear_1_227)" fill-opacity="0.75"/>
<path d="M55.7272 50.6515L73.9996 42.0137V50.873L55.7272 59.2894V50.6515Z" fill="url(#paint11_linear_1_227)" fill-opacity="0.75"/>
<path d="M55.7272 65.272L73.9996 56.6342V65.4934L55.7272 73.9098V65.272Z" fill="#0D348D"/>
<path d="M55.7272 65.272L73.9996 56.6342V65.4934L55.7272 73.9098V65.272Z" fill="url(#paint12_linear_1_227)" fill-opacity="0.75"/>
<path d="M55.7299 50.6479L40.927 43.5604L38.3828 51.0908L55.7299 59.2857V50.6479Z" fill="#011A53"/>
<path d="M55.7299 50.6479L40.927 43.5604L38.3828 51.0908L55.7299 59.2857V50.6479Z" fill="#0094FF"/>
<path d="M55.7299 50.6479L40.927 43.5604L38.3828 51.0908L55.7299 59.2857V50.6479Z" fill="url(#paint13_linear_1_227)" fill-opacity="0.75"/>
<path d="M55.7272 65.2602L37.4548 56.6223V65.4817L55.7272 73.898V65.2602Z" fill="#011A53"/>
<path d="M55.7272 65.2602L37.4548 56.6223V65.4817L55.7272 73.898V65.2602Z" fill="#0094FF"/>
<path d="M55.7272 65.2602L37.4548 56.6223V65.4817L55.7272 73.898V65.2602Z" fill="url(#paint14_linear_1_227)" fill-opacity="0.75"/>
<path d="M37.4549 44.0077L73.9996 26.9535V35.8128L37.4549 52.6455V44.0077Z" fill="#0D348D"/>
<path d="M37.4549 44.0077L73.9996 26.9535V35.8128L37.4549 52.6455V44.0077Z" fill="url(#paint15_linear_1_227)" fill-opacity="0.75"/>
<path d="M37.4549 44.0077L73.9996 26.9535V35.8128L37.4549 52.6455V44.0077Z" fill="url(#paint16_linear_1_227)" fill-opacity="0.75"/>
<path opacity="0.4" d="M13.865 11.892L37.4571 0.817871L61.0493 11.892L37.4571 22.9662L13.865 11.892Z" fill="#CDD1DF"/>
<defs>
<linearGradient id="paint0_linear_1_227" x1="28.0913" y1="43.5604" x2="28.0913" y2="59.2857" gradientUnits="userSpaceOnUse">
<stop stop-color="#0D48CF"/>
<stop offset="1" stop-color="#011A53"/>
</linearGradient>
<linearGradient id="paint1_linear_1_227" x1="28.0913" y1="43.5604" x2="28.0913" y2="59.2857" gradientUnits="userSpaceOnUse">
<stop stop-color="#2F9AFC"/>
<stop offset="1" stop-color="#022880"/>
</linearGradient>
<linearGradient id="paint2_linear_1_227" x1="28.5566" y1="56.6342" x2="28.5566" y2="73.9098" gradientUnits="userSpaceOnUse">
<stop stop-color="#0D48CF"/>
<stop offset="1" stop-color="#011A53"/>
</linearGradient>
<linearGradient id="paint3_linear_1_227" x1="28.5566" y1="56.6342" x2="28.5566" y2="73.9098" gradientUnits="userSpaceOnUse">
<stop stop-color="#2F9AFC"/>
<stop offset="1" stop-color="#022880"/>
</linearGradient>
<linearGradient id="paint4_linear_1_227" x1="19.1825" y1="12.3333" x2="19.1825" y2="38.0253" gradientUnits="userSpaceOnUse">
<stop stop-color="#00C2FF"/>
<stop offset="1" stop-color="white" stop-opacity="0"/>
</linearGradient>
<linearGradient id="paint5_linear_1_227" x1="10.2843" y1="42.0137" x2="10.2843" y2="59.2894" gradientUnits="userSpaceOnUse">
<stop stop-color="#00C2FF"/>
<stop offset="1" stop-color="white" stop-opacity="0"/>
</linearGradient>
<linearGradient id="paint6_linear_1_227" x1="10.2843" y1="56.6342" x2="10.2843" y2="73.9098" gradientUnits="userSpaceOnUse">
<stop stop-color="#00C2FF"/>
<stop offset="1" stop-color="white" stop-opacity="0"/>
</linearGradient>
<linearGradient id="paint7_linear_1_227" x1="19.1825" y1="26.9535" x2="19.1825" y2="52.6455" gradientUnits="userSpaceOnUse">
<stop stop-color="#00C2FF"/>
<stop offset="1" stop-color="white" stop-opacity="0"/>
</linearGradient>
<linearGradient id="paint8_linear_1_227" x1="55.7272" y1="12.3333" x2="55.7272" y2="38.0253" gradientUnits="userSpaceOnUse">
<stop stop-color="#0D48CF"/>
<stop offset="1" stop-color="#011A53"/>
</linearGradient>
<linearGradient id="paint9_linear_1_227" x1="55.7272" y1="12.3333" x2="55.7272" y2="38.0253" gradientUnits="userSpaceOnUse">
<stop stop-color="#2F9AFC"/>
<stop offset="1" stop-color="#022880"/>
</linearGradient>
<linearGradient id="paint10_linear_1_227" x1="64.8634" y1="42.0137" x2="64.8634" y2="59.2894" gradientUnits="userSpaceOnUse">
<stop stop-color="#0D48CF"/>
<stop offset="1" stop-color="#011A53"/>
</linearGradient>
<linearGradient id="paint11_linear_1_227" x1="64.8634" y1="42.0137" x2="64.8634" y2="59.2894" gradientUnits="userSpaceOnUse">
<stop stop-color="#2F9AFC"/>
<stop offset="1" stop-color="#022880"/>
</linearGradient>
<linearGradient id="paint12_linear_1_227" x1="64.8634" y1="56.6342" x2="64.8634" y2="73.9098" gradientUnits="userSpaceOnUse">
<stop stop-color="#2F9AFC"/>
<stop offset="1" stop-color="#022880"/>
</linearGradient>
<linearGradient id="paint13_linear_1_227" x1="47.0563" y1="43.5604" x2="47.0563" y2="59.2857" gradientUnits="userSpaceOnUse">
<stop stop-color="#00C2FF"/>
<stop offset="1" stop-color="white" stop-opacity="0"/>
</linearGradient>
<linearGradient id="paint14_linear_1_227" x1="46.591" y1="56.6223" x2="46.591" y2="73.898" gradientUnits="userSpaceOnUse">
<stop stop-color="#00C2FF"/>
<stop offset="1" stop-color="white" stop-opacity="0"/>
</linearGradient>
<linearGradient id="paint15_linear_1_227" x1="55.7272" y1="26.9535" x2="55.7272" y2="52.6455" gradientUnits="userSpaceOnUse">
<stop stop-color="#0D48CF"/>
<stop offset="1" stop-color="#011A53"/>
</linearGradient>
<linearGradient id="paint16_linear_1_227" x1="55.7272" y1="26.9535" x2="55.7272" y2="52.6455" gradientUnits="userSpaceOnUse">
<stop stop-color="#2F9AFC"/>
<stop offset="1" stop-color="#022880"/>
</linearGradient>
</defs>
</svg>
