<svg width="112" height="30" viewBox="0 0 112 30" fill="none" xmlns="http://www.w3.org/2000/svg">
<path d="M4.09766 4.25391C6.64974 1.63672 10.1068 0.328125 14.4688 0.328125C18.8307 0.328125 22.2878 1.63672 24.8398 4.25391C27.3919 6.87109 28.668 10.4258 28.668 14.918C28.668 19.4102 27.3919 22.9648 24.8398 25.582C22.2878 28.1862 18.8307 29.4883 14.4688 29.4883C10.0938 29.4883 6.63021 28.1862 4.07812 25.582C1.53906 22.9648 0.269531 19.4102 0.269531 14.918C0.269531 10.4258 1.54557 6.87109 4.09766 4.25391ZM18.6484 9.09766C17.5938 7.65234 16.2005 6.92969 14.4688 6.92969C12.737 6.92969 11.3438 7.65234 10.2891 9.09766C9.23438 10.543 8.70703 12.4831 8.70703 14.918C8.70703 17.3398 9.22786 19.2734 10.2695 20.7188C11.3242 22.1641 12.724 22.8867 14.4688 22.8867C16.2135 22.8867 17.6068 22.1641 18.6484 20.7188C19.7031 19.2734 20.2305 17.3398 20.2305 14.918C20.2305 12.4831 19.7031 10.543 18.6484 9.09766ZM30.4581 29V23.8047L43.0167 7.55469V7.39844H30.5753V0.816406H52.6651V5.99219L40.1456 22.2617V22.418H53.1339V29H30.4581ZM58.7717 4.25391C61.3237 1.63672 64.7808 0.328125 69.1428 0.328125C73.5047 0.328125 76.9618 1.63672 79.5138 4.25391C82.0659 6.87109 83.342 10.4258 83.342 14.918C83.342 19.4102 82.0659 22.9648 79.5138 25.582C76.9618 28.1862 73.5047 29.4883 69.1428 29.4883C64.7678 29.4883 61.3042 28.1862 58.7521 25.582C56.2131 22.9648 54.9435 19.4102 54.9435 14.918C54.9435 10.4258 56.2196 6.87109 58.7717 4.25391ZM73.3224 9.09766C72.2678 7.65234 70.8745 6.92969 69.1428 6.92969C67.411 6.92969 66.0178 7.65234 64.9631 9.09766C63.9084 10.543 63.381 12.4831 63.381 14.918C63.381 17.3398 63.9019 19.2734 64.9435 20.7188C65.9982 22.1641 67.398 22.8867 69.1428 22.8867C70.8875 22.8867 72.2808 22.1641 73.3224 20.7188C74.3771 19.2734 74.9045 17.3398 74.9045 14.918C74.9045 12.4831 74.3771 10.543 73.3224 9.09766ZM93.7258 29H85.9133V0.816406H92.3391L103.218 15.4258H103.374V0.816406H111.187V29H104.839L93.8821 14.1562H93.7258V29Z" fill="#0961F5"/>
</svg>
