<svg width="116" height="30" viewBox="0 0 116 30" fill="none" xmlns="http://www.w3.org/2000/svg">
<path d="M0.44 1.88C3.42667 0.866666 6.52 0.359999 9.72 0.359999C12.92 0.359999 15.5733 1.04 17.68 2.4C19.7867 3.76 20.84 5.84 20.84 8.64C20.84 11.44 19.8533 13.8 17.88 15.72C15.9067 17.6133 13.5333 18.56 10.76 18.56C8.73333 18.56 7.72 17.7867 7.72 16.24C7.72 15.76 7.81333 15.2533 8 14.72C8.72 14.9067 9.37333 15 9.96 15C11.8 15 13.1867 14.4933 14.12 13.48C15.08 12.4667 15.56 11.0667 15.56 9.28C15.56 7.46666 15.0533 6.12 14.04 5.24C13.0267 4.36 11.6133 3.92 9.8 3.92C8.86667 3.92 7.73333 4.08 6.4 4.4C6.18667 7.68 6.08 10.5867 6.08 13.12C6.08 20.2133 6.36 25.3467 6.92 28.52C6.06667 28.84 5.16 29 4.2 29C3.24 29 2.4 28.6933 1.68 28.08C0.986667 27.4667 0.64 26.6533 0.64 25.64C0.64 24.6267 0.773333 22.8667 1.04 20.36C1.30667 17.8267 1.44 15.8 1.44 14.28C1.44 9.64 1.10667 5.50666 0.44 1.88ZM36.0615 15.4C37.2615 17.9333 38.7815 20.1467 40.6215 22.04C42.4615 23.9333 44.2882 25.16 46.1015 25.72C46.1015 26.84 45.8082 27.7067 45.2215 28.32C44.6349 28.9333 43.7949 29.24 42.7015 29.24C41.2882 29.24 39.6749 28.3333 37.8615 26.52C36.0482 24.68 34.4615 22.52 33.1015 20.04C31.7682 17.5333 30.9815 15.3333 30.7415 13.44C32.6615 13.44 34.2349 12.9333 35.4615 11.92C36.7149 10.88 37.3415 9.41333 37.3415 7.52C37.3415 5.12 35.8482 3.92 32.8615 3.92C31.9015 3.92 30.7282 4.08 29.3415 4.4C29.1549 8 29.0615 10.9067 29.0615 13.12C29.0615 20.2133 29.3415 25.3467 29.9015 28.52C29.0482 28.84 28.1415 29 27.1815 29C26.2215 29 25.3815 28.6933 24.6615 28.08C23.9682 27.4667 23.6215 26.6533 23.6215 25.64C23.6215 24.6267 23.7549 22.8667 24.0215 20.36C24.2882 17.8267 24.4215 15.8 24.4215 14.28C24.4215 9.61333 24.0882 5.46667 23.4215 1.84C27.0215 0.853333 30.4482 0.359999 33.7015 0.359999C39.6482 0.359999 42.6215 2.48 42.6215 6.72C42.6215 8.58667 41.9815 10.3467 40.7015 12C39.4482 13.6267 37.9015 14.76 36.0615 15.4ZM67.0381 14.44C67.0381 11.2667 66.3847 8.70667 65.0781 6.76C63.7981 4.78666 61.7847 3.8 59.0381 3.8C57.3847 3.8 55.9181 4.33333 54.6381 5.4C53.9181 6.52 53.3447 8.02667 52.9181 9.92C52.5181 11.8133 52.3181 13.6133 52.3181 15.32C52.3181 18.4667 52.9581 20.9867 54.2381 22.88C55.5181 24.7733 57.5447 25.72 60.3181 25.72C61.8381 25.72 63.1314 25.1067 64.1981 23.88C66.0914 21.6667 67.0381 18.52 67.0381 14.44ZM58.9581 29.48C55.0647 29.48 52.1047 28.2 50.0781 25.64C48.0514 23.0533 47.0381 19.68 47.0381 15.52C47.0381 11.3333 48.2914 7.72 50.7981 4.68C53.3047 1.64 56.4914 0.119998 60.3581 0.119998C64.2514 0.119998 67.2114 1.42666 69.2381 4.04C71.2914 6.65333 72.3181 10.0533 72.3181 14.24C72.3181 18.4267 71.0647 22.0133 68.5581 25C66.0514 27.9867 62.8514 29.48 58.9581 29.48ZM92.2399 28.52C91.3865 28.84 90.4799 29 89.5199 29C88.5599 29 87.7199 28.6933 86.9999 28.08C86.3065 27.4667 85.9599 26.6267 85.9599 25.56C85.9599 24.4933 86.0932 22.4533 86.3599 19.44C86.6265 16.4 86.7599 13.9733 86.7599 12.16C86.7599 7.49333 86.4799 3.8 85.9199 1.08C86.7732 0.759999 87.6799 0.599998 88.6399 0.599998C89.5999 0.599998 90.4265 0.906665 91.1199 1.52C91.8399 2.13333 92.1999 2.97333 92.1999 4.04C92.1999 5.10667 92.0665 7.16 91.7999 10.2C91.5332 13.2133 91.3999 15.6267 91.3999 17.44C91.3999 22.1067 91.6799 25.8 92.2399 28.52ZM97.4414 0.479998L105.881 0.599998C110.255 0.599998 113.455 0.439998 115.481 0.119998C115.775 0.679998 115.921 1.32 115.921 2.04C115.921 2.76 115.601 3.41333 114.961 4C114.321 4.56 113.548 4.84 112.641 4.84L108.041 4.32C108.041 4.50667 107.975 5.33333 107.841 6.8C107.468 10.4 107.281 14.0133 107.281 17.64C107.281 21.2667 107.561 24.8933 108.121 28.52C107.241 28.84 106.321 29 105.361 29C104.401 29 103.575 28.7333 102.881 28.2C102.188 27.64 101.841 26.8133 101.841 25.72C101.841 24.6 101.975 22.64 102.241 19.84C102.508 17.04 102.641 14.32 102.641 11.68C102.641 9.01333 102.508 6.53333 102.241 4.24C99.0147 4.4 96.4947 4.85333 94.6814 5.6C94.3614 4.98667 94.2014 4.30667 94.2014 3.56C94.2014 2.78667 94.5081 2.08 95.1214 1.44C95.7347 0.799998 96.5081 0.479998 97.4414 0.479998Z" fill="#CA4119"/>
</svg>
