<svg width="24" height="24" viewBox="0 0 24 24" fill="none" xmlns="http://www.w3.org/2000/svg">
<path d="M15.7312 2.57343C15.8391 2.62031 15.975 2.73281 16.0359 2.81718C16.1484 2.97656 16.1484 2.98125 16.1625 4.43906L16.1766 5.90625H17.25H18.3281V13.7109V21.5156H12H5.67187V13.7109V5.90625H6.75H7.82344L7.8375 4.43906C7.85156 2.98125 7.85156 2.97656 7.96406 2.81718C8.025 2.73281 8.16094 2.62031 8.26875 2.57343C8.45156 2.48906 8.64844 2.48437 12 2.48437C15.3516 2.48437 15.5484 2.48906 15.7312 2.57343ZM9.32812 4.94531V5.90625H12H14.6719V4.94531V3.98437H12H9.32812V4.94531Z" fill="black"/>
<path d="M21.8438 5.93906C22.875 6.1125 23.7797 7.00312 23.9531 8.01562C23.9906 8.23125 24 9.98438 23.9906 13.8984L23.9766 19.4766L23.8547 19.7906C23.5172 20.6578 22.8234 21.2625 21.9609 21.4453C21.7359 21.4922 21.3422 21.5156 20.7281 21.5156H19.8281V13.7109V5.90625L20.775 5.91094C21.3 5.91562 21.7781 5.92969 21.8438 5.93906Z" fill="black"/>
<path d="M4.17188 13.7062V21.5156H3.26719C1.93125 21.5156 1.45781 21.3797 0.857813 20.8406C0.525 20.5359 0.314063 20.2266 0.145313 19.7906L0.023438 19.4766L0.0093751 13.8984C4.76837e-07 9.98438 0.0093751 8.23125 0.0468755 8.01562C0.154688 7.38281 0.623438 6.67969 1.17656 6.32344C1.30781 6.24375 1.55156 6.12187 1.725 6.05625C2.02031 5.94375 2.1 5.93437 3.10313 5.91562L4.17188 5.89687V13.7062Z" fill="black"/>
</svg>
