<svg width="26" height="26" viewBox="0 0 26 26" fill="none" xmlns="http://www.w3.org/2000/svg">
<path d="M9.49604 2.48828C7.99799 2.75234 6.91128 4.03711 6.9062 5.54531V5.93125L4.76323 5.95664C2.37143 5.97695 2.33081 5.98203 1.65034 6.3375C1.16792 6.59141 0.58901 7.17031 0.365572 7.62734C0.274166 7.81524 0.152291 8.14531 0.0964318 8.36875C-5.25396e-05 8.75469 -5.25406e-05 8.91719 0.0101037 14.9094L0.0253381 21.0488L0.142135 21.3789C0.309713 21.8461 0.528072 22.2016 0.847994 22.5469C1.20854 22.9379 1.59956 23.1918 2.13276 23.3797L2.5644 23.5371H12.9999H23.4355L23.8671 23.3797C24.8421 23.0344 25.5277 22.3336 25.8578 21.3535L25.9746 20.998V14.752V8.50586L25.8324 8.09961C25.5683 7.33789 25.0148 6.68789 24.3292 6.32734C23.6742 5.98711 23.6183 5.97695 21.2417 5.95664L19.0937 5.93125V5.54531C19.0886 4.35195 18.4234 3.29063 17.3417 2.76758C16.6714 2.44258 16.5699 2.4375 12.9644 2.44258C11.182 2.44766 9.623 2.46797 9.49604 2.48828ZM14.0664 8.6125C15.5339 8.87656 16.9152 9.75508 17.7937 10.9891C19.2765 13.066 19.2562 15.8641 17.7378 17.9004C16.0468 20.1652 13.0457 20.9371 10.5218 19.7539C7.17026 18.1848 6.06323 13.9953 8.20112 10.9941C9.53667 9.12031 11.7812 8.20625 14.0664 8.6125Z" fill="black"/>
<path d="M12.4565 11.3293C11.5374 11.4816 10.6233 12.1723 10.2069 13.0254C9.98857 13.4672 9.89716 13.8785 9.89716 14.3965C9.89208 15.2801 10.1815 15.9707 10.8163 16.6055C11.253 17.0473 11.6491 17.2758 12.2179 17.418C13.6499 17.7836 15.1632 17.0879 15.7827 15.7828C15.8944 15.5543 16.0112 15.2496 16.0417 15.1125C16.128 14.7621 16.1128 13.9953 16.0214 13.6348C15.605 12.0605 14.0612 11.0602 12.4565 11.3293Z" fill="black"/>
</svg>
