<svg width="28" height="28" viewBox="0 0 28 28" fill="none" xmlns="http://www.w3.org/2000/svg">
<path d="M12.9828 0.295313C12.2336 0.535938 11.7305 1.31797 11.8399 2.06719C11.9219 2.66875 11.7907 2.52656 17.8117 8.53672C24.0953 14.8148 23.6469 14.4102 24.3907 14.4102C25.2875 14.4047 25.9875 13.7156 25.9985 12.8242C26.0094 12.0531 26.436 12.5344 20.1305 6.21797C15.5149 1.59141 14.4102 0.519532 14.1805 0.404688C13.836 0.229689 13.311 0.185938 12.9828 0.295313Z" fill="black"/>
<path d="M11.484 4.56638C11.484 4.59919 11.4129 4.93279 11.3254 5.31013C10.7293 7.87498 9.52072 10.3578 7.85822 12.4086L7.53009 12.8078L10.4996 15.7773L13.4746 18.7523L13.6387 18.6101C15.8371 16.8109 18.4074 15.4984 20.8082 14.957C21.1692 14.875 21.5192 14.7929 21.5902 14.7711C21.6942 14.7437 21.0817 14.1094 16.5973 9.62498C13.7863 6.81404 11.484 4.53904 11.484 4.56638Z" fill="black"/>
<path d="M4.23283 16.2531C2.23674 18.2602 2.02893 18.4898 1.89221 18.8016C1.57502 19.5289 1.58049 20.218 1.91408 20.9344C2.06721 21.2625 2.24221 21.4594 3.54377 22.7555C4.84533 24.057 5.04221 24.232 5.38674 24.3961C5.75862 24.5766 5.79143 24.582 6.43127 24.582C7.07658 24.582 7.09299 24.582 7.49768 24.3797C7.87502 24.1937 8.06096 24.0188 10.0625 22.0117L12.2227 19.8516L9.32424 16.9531L6.4258 14.0547L4.23283 16.2531Z" fill="black"/>
<path d="M13.6281 22.3836C14.0711 22.8102 15.657 24.325 15.6789 24.3359L16.2258 24.8992C16.6633 25.3477 16.7945 25.5227 16.8875 25.7742C17.1883 26.5781 16.8492 27.4477 16.0891 27.8195C15.832 27.9453 15.7062 27.9727 15.3617 27.9727C14.6891 27.9727 14.607 27.9125 12.4141 25.7852L10.5 23.9258L11.6594 22.7664L12.8133 21.6125L13.6281 22.3836Z" fill="black"/>
</svg>
