<svg width="36" height="36" viewBox="0 0 36 36" fill="none" xmlns="http://www.w3.org/2000/svg">
<g clip-path="url(#clip0_1_181)">
<path d="M1.30226 27.4141C0.930853 28.0444 0.513729 28.7758 0.15946 29.3586C-0.157638 29.9162 0.0125928 30.6354 0.542299 30.976L7.97053 35.733C8.23127 35.9005 8.54575 35.9521 8.84335 35.876C9.14096 35.8 9.39675 35.6028 9.55331 35.3287C9.85044 34.8113 10.2333 34.1394 10.6504 33.4199C13.5931 28.3655 16.553 28.984 21.8899 31.636L29.2553 35.2811C29.5342 35.4193 29.855 35.434 30.1446 35.322C30.4342 35.21 30.6678 34.9807 30.7923 34.6865L34.3293 26.3616C34.5792 25.7671 34.3249 25.0738 33.7579 24.8037C32.2037 24.0426 29.1124 22.5263 26.3297 21.1289C16.3187 16.0686 7.81053 16.3956 1.30226 27.4141Z" fill="url(#paint0_linear_1_181)"/>
<path d="M34.6099 8.52175C34.9814 7.89144 35.3985 7.16005 35.7528 6.57731C36.0699 6.01967 35.8996 5.30049 35.3699 4.95992L27.9417 0.202878C27.6788 0.0186269 27.3542 -0.0437438 27.0455 0.0306671C26.7367 0.105078 26.4715 0.309587 26.3132 0.595334C26.0161 1.11266 25.6332 1.78459 25.2161 2.5041C22.2734 7.55845 19.3135 6.94003 13.9766 4.28798L6.63411 0.660743C6.35515 0.522572 6.03433 0.507818 5.74475 0.619844C5.45518 0.731869 5.22152 0.961129 5.09704 1.25537L1.56006 9.58019C1.31016 10.1748 1.56443 10.868 2.13146 11.1381C3.68567 11.8992 6.77696 13.4156 9.55969 14.8129C19.5935 19.8673 28.1017 19.5283 34.6099 8.52175Z" fill="url(#paint1_linear_1_181)"/>
</g>
<defs>
<linearGradient id="paint0_linear_1_181" x1="34.1293" y1="38.1888" x2="25.2386" y2="18.589" gradientUnits="userSpaceOnUse">
<stop offset="0.18" stop-color="#0052CC"/>
<stop offset="1" stop-color="#2684FF"/>
</linearGradient>
<linearGradient id="paint1_linear_1_181" x1="1.7829" y1="-2.25889" x2="10.6876" y2="17.35" gradientUnits="userSpaceOnUse">
<stop offset="0.18" stop-color="#0052CC"/>
<stop offset="1" stop-color="#2684FF"/>
</linearGradient>
<clipPath id="clip0_1_181">
<rect width="36" height="36" fill="white"/>
</clipPath>
</defs>
</svg>
