<svg width="26" height="40" viewBox="0 0 26 40" fill="none" xmlns="http://www.w3.org/2000/svg">
<g clip-path="url(#clip0_1_165)">
<path d="M13 20C13 18.2319 13.6848 16.5362 14.9038 15.286C16.1228 14.0357 17.7761 13.3333 19.5 13.3333C21.2239 13.3333 22.8772 14.0357 24.0962 15.286C25.3152 16.5362 26 18.2319 26 20C26 21.7681 25.3152 23.4638 24.0962 24.7141C22.8772 25.9643 21.2239 26.6667 19.5 26.6667C17.7761 26.6667 16.1228 25.9643 14.9038 24.7141C13.6848 23.4638 13 21.7681 13 20Z" fill="#1ABCFE"/>
<path d="M0 33.3333C0 31.5652 0.684819 29.8695 1.90381 28.6193C3.12279 27.369 4.77609 26.6667 6.5 26.6667H13V33.3333C13 35.1014 12.3152 36.7971 11.0962 38.0474C9.87721 39.2976 8.22391 40 6.5 40C4.77609 40 3.12279 39.2976 1.90381 38.0474C0.684819 36.7971 0 35.1014 0 33.3333H0Z" fill="#0ACF83"/>
<path d="M13 0V13.3333H19.5C21.2239 13.3333 22.8772 12.631 24.0962 11.3807C25.3152 10.1305 26 8.43478 26 6.66667C26 4.89856 25.3152 3.20286 24.0962 1.95262C22.8772 0.702379 21.2239 0 19.5 0L13 0Z" fill="#FF7262"/>
<path d="M0 6.66667C0 8.43478 0.684819 10.1305 1.90381 11.3807C3.12279 12.631 4.77609 13.3333 6.5 13.3333H13V0H6.5C4.77609 0 3.12279 0.702379 1.90381 1.95262C0.684819 3.20286 0 4.89856 0 6.66667H0Z" fill="#F24E1E"/>
<path d="M0 20C0 21.7681 0.684819 23.4638 1.90381 24.7141C3.12279 25.9643 4.77609 26.6667 6.5 26.6667H13V13.3333H6.5C4.77609 13.3333 3.12279 14.0357 1.90381 15.286C0.684819 16.5362 0 18.2319 0 20H0Z" fill="#A259FF"/>
</g>
<defs>
<clipPath id="clip0_1_165">
<rect width="26" height="40" fill="white"/>
</clipPath>
</defs>
</svg>
