<svg width="40" height="40" viewBox="0 0 40 40" fill="none" xmlns="http://www.w3.org/2000/svg">
<path d="M36.07 2.53506H19.215C19.2163 4.5525 20.0186 6.48684 21.4457 7.91292C22.8727 9.33899 24.8075 10.1401 26.825 10.1401H29.925V13.1401C29.9276 15.1566 30.7306 17.0897 32.1574 18.5147C33.5843 19.9397 35.5184 20.7401 37.535 20.7401V4.00006C37.535 3.61152 37.3806 3.23889 37.1059 2.96415C36.8311 2.68941 36.4585 2.53506 36.07 2.53506V2.53506Z" fill="#0052CC"/>
<path d="M27.7299 10.9301H10.8749C10.8749 11.9304 11.0723 12.921 11.4557 13.845C11.8392 14.769 12.4011 15.6082 13.1095 16.3147C13.8178 17.0211 14.6585 17.5809 15.5835 17.9619C16.5085 18.3429 17.4996 18.5377 18.4999 18.5351H21.6049V21.5351C21.6062 23.5482 22.4052 25.4787 23.8268 26.9041C25.2484 28.3294 27.1768 29.1334 29.1899 29.1401V12.3901C29.1899 12.0028 29.0361 11.6315 28.7623 11.3577C28.4885 11.0839 28.1171 10.9301 27.7299 10.9301V10.9301Z" fill="#0052CC"/>
<path d="M19.3899 19.325H2.53491C2.53491 21.342 3.33615 23.2763 4.76236 24.7026C6.18858 26.1288 8.12294 26.93 10.1399 26.93H13.2449V29.93C13.2449 31.947 14.0461 33.8813 15.4724 35.3076C16.8986 36.7338 18.8329 37.535 20.8499 37.535V20.79C20.8499 20.4023 20.6962 20.0305 20.4226 19.7559C20.1489 19.4813 19.7776 19.3263 19.3899 19.325V19.325Z" fill="#0052CC"/>
</svg>
