<svg width="48" height="17" viewBox="0 0 48 17" fill="none" xmlns="http://www.w3.org/2000/svg">
<path fill-rule="evenodd" clip-rule="evenodd" d="M41.8973 4.15556C45.7115 4.15556 48 6.97557 48 10.5778C48 14.1667 45.7115 17 41.8973 17C38.083 17 35.7945 14.18 35.7945 10.5778C35.7945 6.97557 38.083 4.15556 41.8973 4.15556ZM23.6186 4.91111V16.6222L20.9486 15.7678V10.9556V8.12222V5.28889L23.6186 4.91111ZM34.0929 4.53333V7.17778L32.5672 7.36667C31.2322 7.55556 30.2787 8.31111 30.2787 9.81463V16.6222L27.5757 15.7678L27.6087 9.81463C27.6087 6.58091 29.5158 5.1 32.5672 4.72222L34.0929 4.53333ZM5.72132 4.53333C6.86558 4.53333 8.04875 5.00168 8.77269 6.04444C9.4993 5.09486 10.6798 4.53333 12.2055 4.53333C14.1126 4.53333 16.4011 5.66667 16.4011 9.44445V16.6222L13.7312 15.7678V9.44445C13.7312 8.12222 12.8997 7.17778 11.6333 7.17778C10.367 7.17778 9.53553 8.12222 9.53553 9.44445V16.6222L6.86558 15.7678V9.44445C6.86558 8.12222 6.03389 7.17778 4.76777 7.17778C3.47894 7.17778 2.66995 8.12222 2.66995 9.44445V16.6222L0 15.7678V9.44445V5.28889L2.66995 4.91111V6.04444C3.41601 5.13598 4.19563 4.53333 5.72132 4.53333ZM41.8973 6.8C39.6087 6.8 38.4645 8.49173 38.4645 10.5778C38.4645 12.6638 39.6087 14.3556 41.8973 14.3556C44.1858 14.3556 45.33 12.6556 45.33 10.5778C45.33 8.49433 44.1858 6.8 41.8973 6.8ZM22.2836 0C23.2372 0 24 0.566667 24 1.7C24 2.83333 23.2372 3.4 22.2836 3.4C21.33 3.4 20.5672 2.83333 20.5672 1.7C20.5672 0.566661 21.33 0 22.2836 0Z" fill="#0B003A"/>
</svg>
