<svg width="42" height="42" viewBox="0 0 42 42" fill="none" xmlns="http://www.w3.org/2000/svg">
<path fill-rule="evenodd" clip-rule="evenodd" d="M7.50225 38.3483L2.98808 32.7248C1.90198 31.3717 1.3125 29.7079 1.3125 27.9955V7.63217C1.3125 5.06709 3.36471 2.93865 6.01219 2.75789L26.9484 1.32849C28.4694 1.22464 29.9812 1.62893 31.2306 2.47367L38.5865 7.44701C39.9032 8.33725 40.6875 9.79254 40.6875 11.3456V34.4967C40.6875 37.0069 38.6696 39.0853 36.0775 39.2449L12.8406 40.6753C10.7721 40.8026 8.77274 39.9311 7.50225 38.3483Z" fill="white"/>
<path d="M14.7632 17.822V17.5555C14.7632 16.8797 15.3045 16.3192 16.0021 16.2726L21.0832 15.9334L28.11 26.2809V17.1992L26.3013 16.9581V16.8315C26.3013 16.1477 26.8549 15.5835 27.5614 15.5474L32.1847 15.3105V15.9759C32.1847 16.2882 31.9524 16.5553 31.6341 16.6092L30.5216 16.7973V31.5048L29.1253 31.985C27.9588 32.3862 26.6601 31.9568 25.9923 30.9491L19.1706 20.6551V30.4801L21.2703 30.882L21.241 31.0767C21.1494 31.6868 20.6227 32.1482 19.9855 32.1766L14.7632 32.409C14.6942 31.753 15.1859 31.166 15.8642 31.0948L16.5511 31.0226V17.9225L14.7632 17.822Z" fill="black"/>
<path fill-rule="evenodd" clip-rule="evenodd" d="M27.1359 3.8939L6.19968 5.3233C4.94561 5.40893 3.97351 6.41714 3.97351 7.63217V27.9955C3.97351 29.1371 4.3665 30.2463 5.09057 31.1483L9.60473 36.7719C10.3346 37.6811 11.4832 38.1818 12.6715 38.1086L35.9083 36.6783C37.0993 36.605 38.0264 35.65 38.0264 34.4967V11.3456C38.0264 10.632 37.6661 9.96338 37.0611 9.55435L29.7052 4.58101C28.9556 4.07417 28.0485 3.83159 27.1359 3.8939ZM7.23786 7.94981C6.94668 7.73422 7.08525 7.28509 7.45106 7.25886L27.2767 5.83683C27.9084 5.79152 28.5361 5.96547 29.047 6.3274L33.0248 9.14567C33.1759 9.25266 33.105 9.48364 32.918 9.49381L11.9227 10.6357C11.2873 10.6702 10.6601 10.4836 10.155 10.1095L7.23786 7.94981ZM10.9379 14.2153C10.9379 13.5332 11.489 12.9698 12.1936 12.9314L34.3916 11.7225C35.0784 11.6851 35.6565 12.2133 35.6565 12.878V32.9244C35.6565 33.6052 35.1074 34.1681 34.4041 34.2081L12.3467 35.4631C11.5824 35.5066 10.9379 34.9193 10.9379 34.1795V14.2153Z" fill="black"/>
</svg>
