<svg width="36" height="36" viewBox="0 0 36 36" fill="none" xmlns="http://www.w3.org/2000/svg">
<g clip-path="url(#clip0_1_112)">
<path d="M29.625 0H6.375C2.85418 0 0 2.92737 0 6.53846V29.4615C0 33.0726 2.85418 36 6.375 36H29.625C33.1458 36 36 33.0726 36 29.4615V6.53846C36 2.92737 33.1458 0 29.625 0Z" fill="#470137"/>
<path d="M18.9252 9.46748L14.4332 17.0716L19.2391 25.1464C19.2699 25.2029 19.2785 25.2693 19.2632 25.3322C19.247 25.3902 19.1908 25.3536 19.0942 25.3699H15.6649C15.4234 25.3699 15.2543 25.3612 15.1577 25.1959C14.8355 24.552 14.5135 23.9121 14.1917 23.2763C13.8695 22.6408 13.5273 21.9927 13.1654 21.3319C12.8031 20.6717 12.4449 20.0029 12.0907 19.3256H12.0665C11.7443 19.9863 11.4102 20.6468 11.0643 21.3072C10.7179 21.9678 10.3758 22.6242 10.0379 23.2763C9.69986 23.9288 9.35371 24.577 8.99952 25.2207C8.93499 25.3693 8.82213 25.3847 8.66136 25.3847H5.35286C5.2887 25.3847 5.25245 25.4107 5.24417 25.3445C5.23508 25.2841 5.24799 25.2224 5.28043 25.1712L9.94134 17.3193L5.40113 9.44269C5.35286 9.37692 5.34481 9.32326 5.37696 9.28171C5.39479 9.26058 5.41717 9.24398 5.44232 9.23323C5.46747 9.22248 5.49472 9.21788 5.5219 9.21977H8.92701C9.00126 9.21557 9.07549 9.22827 9.14439 9.25696C9.20213 9.29051 9.25167 9.33709 9.28926 9.39319C9.57908 10.0538 9.90108 10.7143 10.2553 11.3747C10.6092 12.0354 10.9675 12.6876 11.3299 13.3315C11.6922 13.9755 12.0263 14.6277 12.3322 15.2882H12.3564C12.6782 14.6113 13.0042 13.9508 13.3344 13.3067C13.6642 12.6627 14.0023 12.0146 14.3487 11.3623C14.6948 10.7102 15.0288 10.0621 15.3509 9.41794C15.3694 9.35681 15.4027 9.30145 15.4475 9.25696C15.5072 9.22591 15.5742 9.21301 15.6407 9.21977H18.8044C18.8349 9.21205 18.867 9.2152 18.8956 9.22871C18.9241 9.24222 18.9473 9.26528 18.9613 9.2941C18.9754 9.32292 18.9794 9.35579 18.9729 9.3873C18.9663 9.41881 18.9495 9.44709 18.9251 9.46748L18.9252 9.46748Z" fill="#FF61F6"/>
<path d="M25.8561 25.6913C24.7445 25.7086 23.6432 25.4717 22.6321 24.9977C21.6901 24.5506 20.9028 23.8208 20.3741 22.9047C19.8265 21.972 19.5528 20.8037 19.5529 19.3999C19.5439 18.2631 19.8271 17.1439 20.3741 16.1551C20.9375 15.148 21.7661 14.3239 22.7649 13.7773C23.8113 13.1828 25.0751 12.8856 26.5564 12.8856C26.6368 12.8856 26.7414 12.8897 26.8704 12.898C26.999 12.9065 27.152 12.9189 27.3292 12.9351V8.0556C27.3292 7.94025 27.3776 7.88221 27.4742 7.88221H30.517C30.5367 7.87933 30.5568 7.88118 30.5756 7.88763C30.5945 7.89407 30.6116 7.90493 30.6257 7.91935C30.6398 7.93376 30.6504 7.95134 30.6567 7.97068C30.6629 7.99003 30.6648 8.01061 30.662 8.0308V22.6694C30.662 22.9504 30.674 23.2559 30.6981 23.5859C30.7223 23.9164 30.7425 24.2136 30.7586 24.4776C30.7615 24.529 30.7493 24.5802 30.7234 24.6244C30.6976 24.6686 30.6593 24.7038 30.6136 24.7253C29.8286 25.0611 29.011 25.3102 28.1745 25.4683C27.4097 25.6131 26.6338 25.6877 25.8561 25.6913ZM27.3292 22.6199V15.8579C27.1987 15.8216 27.0654 15.7968 26.9308 15.7836C26.7663 15.7666 26.601 15.7584 26.4357 15.7588C25.8496 15.7528 25.2705 15.8886 24.7452 16.1551C24.2335 16.416 23.7967 16.8086 23.4773 17.2945C23.1472 17.7899 22.9821 18.4421 22.9822 19.2513C22.9705 19.7912 23.0564 20.3287 23.2358 20.8365C23.3817 21.2457 23.6125 21.6175 23.912 21.9264C24.1988 22.2105 24.546 22.4225 24.9263 22.5456C25.328 22.679 25.7478 22.7459 26.17 22.7437C26.3953 22.7437 26.6046 22.7355 26.7979 22.719C26.9779 22.7051 27.156 22.6719 27.3292 22.6199Z" fill="#FF61F6"/>
</g>
<defs>
<clipPath id="clip0_1_112">
<rect width="36" height="36" fill="white"/>
</clipPath>
</defs>
</svg>
